<?xml version="1.0" standalone="no"?>
<!DOCTYPE svg PUBLIC "-//W3C//DTD SVG 20010904//EN"
 "http://www.w3.org/TR/2001/REC-SVG-20010904/DTD/svg10.dtd">
<svg version="1.0" xmlns="http://www.w3.org/2000/svg"
 width="256.000000pt" height="256.000000pt" viewBox="0 0 256.000000 256.000000"
 preserveAspectRatio="xMidYMid meet">
<metadata>
Created by potrace 1.11, written by Peter Selinger 2001-2013
</metadata>
<g transform="translate(0.000000,256.000000) scale(0.100000,-0.100000)"
fill="#000000" stroke="none">
<path d="M824 2488 c-12 -5 -28 -25 -37 -43 -18 -38 -98 -91 -123 -81 -10 4
-30 -3 -48 -17 -17 -13 -55 -36 -83 -51 -42 -21 -53 -31 -53 -50 0 -16 -7 -27
-20 -31 -11 -4 -27 -20 -35 -36 -9 -16 -20 -29 -25 -29 -16 0 -50 -63 -50 -92
0 -22 -5 -28 -22 -28 -59 0 -68 -9 -68 -65 0 -59 -12 -75 -55 -72 -25 2 -30
-2 -36 -28 -11 -47 -10 -151 1 -180 8 -20 7 -30 -5 -41 -8 -9 -15 -29 -15 -45
0 -16 -4 -29 -10 -29 -5 0 -10 -11 -10 -25 0 -14 -3 -25 -8 -25 -4 0 -18 -27
-31 -60 -24 -59 -24 -60 -5 -81 18 -20 18 -21 -1 -35 -10 -8 -25 -14 -33 -14
-10 0 -12 -6 -7 -17 4 -10 10 -28 12 -41 3 -12 9 -25 14 -28 15 -9 10 -71 -6
-84 -17 -14 -20 -76 -4 -85 5 -4 8 -14 6 -23 -2 -10 2 -29 9 -43 7 -14 12 -53
11 -87 -2 -51 2 -65 20 -83 20 -20 20 -24 6 -45 -13 -21 -13 -28 3 -69 19 -50
97 -135 124 -135 22 0 56 -47 65 -90 6 -26 33 -60 102 -128 78 -77 111 -101
185 -138 52 -25 105 -44 124 -44 23 0 44 -10 70 -32 36 -32 41 -33 124 -34 70
0 91 -4 105 -18 28 -27 56 -34 123 -30 59 3 63 2 72 -22 12 -30 35 -40 53 -22
10 9 46 14 118 16 109 3 144 11 194 48 17 12 53 25 80 28 45 6 93 21 151 48
15 7 28 7 40 0 14 -8 29 -4 66 16 26 14 48 31 48 36 0 6 18 24 40 40 22 17 40
37 40 46 0 20 36 60 53 60 7 0 28 12 47 28 19 15 47 34 63 41 19 10 30 27 38
55 13 49 54 96 85 96 15 0 38 17 66 50 47 54 61 108 44 166 -11 41 -1 81 23
89 27 8 43 58 30 92 -12 31 -5 69 16 90 21 20 19 28 -11 42 -23 10 -25 16 -20
44 4 18 11 61 16 97 8 63 8 66 -22 103 -26 33 -29 42 -20 62 7 14 9 46 5 75
-5 40 -12 55 -30 68 -21 13 -24 21 -20 49 3 19 -1 55 -8 81 -8 26 -15 61 -15
77 0 17 -7 39 -15 49 -8 11 -15 28 -15 37 0 9 -16 26 -35 38 -19 11 -35 27
-35 36 0 9 -16 37 -36 63 -25 33 -33 53 -29 69 4 18 -2 27 -30 45 -28 18 -38
34 -51 80 -14 48 -21 59 -48 69 -17 6 -36 11 -43 10 -7 -1 -19 14 -27 33 -10
25 -23 37 -43 41 -15 3 -51 15 -80 26 -29 11 -61 18 -71 15 -23 -8 -35 6 -51
55 -12 37 -43 59 -85 59 -27 0 -46 -14 -76 -59 -25 -36 -14 -35 -134 -16 -16
2 -32 9 -35 13 -12 19 -51 22 -92 7 -62 -21 -93 -19 -127 10 -30 25 -50 25
-82 0 -29 -24 -72 -27 -106 -9 -32 17 -34 17 -54 -1 -20 -18 -22 -19 -31 -2
-29 51 -77 69 -125 45z m103 -879 c38 -12 63 -47 63 -89 0 -17 7 -45 16 -62
l16 -30 -37 28 c-76 58 -196 38 -245 -41 -30 -49 -30 -121 0 -170 l23 -37 -42
21 c-113 58 -133 227 -37 325 68 71 139 87 243 55z m856 -2 c47 -20 58 -38 69
-122 14 -102 6 -119 -31 -68 -50 69 -148 93 -220 52 -70 -39 -95 -133 -56
-209 l18 -34 -23 15 c-65 43 -91 172 -51 255 24 47 75 98 116 112 43 15 140
14 178 -1z m-869 -778 c34 -27 33 -50 -10 -152 -38 -92 -54 -113 -80 -103 -17
7 -15 36 12 156 18 77 34 120 44 120 4 0 19 -9 34 -21z m800 -107 c14 -54 26
-109 26 -121 0 -30 -27 -38 -51 -14 -24 24 -98 193 -92 210 5 13 25 20 64 22
25 1 28 -4 53 -97z m-720 79 c3 -5 31 -23 61 -40 79 -45 70 -70 -20 -56 -40 5
-47 10 -60 43 -16 36 -14 62 4 62 5 0 12 -4 15 -9z m586 -55 c0 -30 -65 -54
-115 -42 -37 9 -31 21 23 38 62 20 92 21 92 4z m-421 -10 c6 -7 32 -21 57 -31
25 -9 43 -22 41 -29 -2 -6 -26 -12 -54 -14 -56 -3 -69 6 -79 56 -5 25 -3 32 9
32 8 0 20 -6 26 -14z m261 -45 c0 -32 -112 -46 -124 -15 -3 9 -4 19 -2 22 5 9
126 2 126 -7z m-167 -101 c5 -4 7 -25 5 -46 -3 -38 -4 -39 -43 -42 -54 -5
-200 17 -221 33 -16 11 -15 14 14 29 39 20 62 20 88 1 25 -19 34 -19 34 3 0
32 22 44 70 37 25 -4 49 -10 53 -15z m150 4 c9 -3 17 -14 17 -25 0 -22 8 -24
33 -5 18 14 90 7 108 -11 19 -19 -17 -32 -123 -46 -130 -16 -148 -11 -148 41
0 61 25 71 113 46z"/>
</g>
</svg>
